<svg xmlns="http://www.w3.org/2000/svg" width="948" height="160"><path d="M-12,356L-157,359L407,425Z" fill="#a1ddd0" stroke="#a1ddd0" stroke-width="1.51"/><path d="M557,-256L745,-215L991,-222Z" fill="#a9dfd4" stroke="#a9dfd4" stroke-width="1.51"/><path d="M1148,-65L1118,47L1149,208Z" fill="#bee7df" stroke="#bee7df" stroke-width="1.51"/><path d="M875,415L407,425L1201,430Z" fill="#9cdbcf" stroke="#9cdbcf" stroke-width="1.51"/><path d="M1013,409L875,415L1201,430Z" fill="#89d4c6" stroke="#89d4c6" stroke-width="1.51"/><path d="M1149,208L1013,409L1201,430Z" fill="#8ed5c8" stroke="#8ed5c8" stroke-width="1.51"/><path d="M1010,-95L1148,-65L1203,-179Z" fill="#9ddbcf" stroke="#9ddbcf" stroke-width="1.51"/><path d="M991,-222L1010,-95L1203,-179Z" fill="#98d9cc" stroke="#98d9cc" stroke-width="1.51"/><path d="M1149,208L1201,430L1203,-179Z" fill="#aee1d7" stroke="#aee1d7" stroke-width="1.51"/><path d="M1148,-65L1149,208L1203,-179Z" fill="#ade0d6" stroke="#ade0d6" stroke-width="1.51"/><path d="M1010,-95L1118,47L1148,-65Z" fill="#afe2d7" stroke="#afe2d7" stroke-width="1.51"/><path d="M961,276L1013,409L1149,208Z" fill="#a0dcd0" stroke="#a0dcd0" stroke-width="1.51"/><path d="M1118,47L956,128L1149,208Z" fill="#bee7de" stroke="#bee7de" stroke-width="1.51"/><path d="M956,128L961,276L1149,208Z" fill="#b5e4da" stroke="#b5e4da" stroke-width="1.51"/><path d="M745,-215L832,-189L991,-222Z" fill="#a4ddd2" stroke="#a4ddd2" stroke-width="1.51"/><path d="M1010,-95L956,128L1118,47Z" fill="#c1e8e0" stroke="#c1e8e0" stroke-width="1.51"/><path d="M675,357L407,425L875,415Z" fill="#b2e3d9" stroke="#b2e3d9" stroke-width="1.51"/><path d="M811,84L956,128L1010,-95Z" fill="#cdece6" stroke="#cdece6" stroke-width="1.51"/><path d="M818,-106L811,84L1010,-95Z" fill="#c3e9e1" stroke="#c3e9e1" stroke-width="1.51"/><path d="M991,-222L832,-189L1010,-95Z" fill="#a4ddd2" stroke="#a4ddd2" stroke-width="1.51"/><path d="M832,-189L818,-106L1010,-95Z" fill="#b1e2d8" stroke="#b1e2d8" stroke-width="1.51"/><path d="M961,276L875,415L1013,409Z" fill="#9cdbce" stroke="#9cdbce" stroke-width="1.51"/><path d="M956,128L824,237L961,276Z" fill="#bde6de" stroke="#bde6de" stroke-width="1.51"/><path d="M824,237L875,415L961,276Z" fill="#aee1d6" stroke="#aee1d6" stroke-width="1.51"/><path d="M811,84L824,237L956,128Z" fill="#ceede6" stroke="#ceede6" stroke-width="1.51"/><path d="M544,354L407,425L675,357Z" fill="#c1e8e0" stroke="#c1e8e0" stroke-width="1.51"/><path d="M713,-42L811,84L818,-106Z" fill="#d0eee7" stroke="#d0eee7" stroke-width="1.51"/><path d="M824,237L675,357L875,415Z" fill="#b1e2d8" stroke="#b1e2d8" stroke-width="1.51"/><path d="M104,351L-12,356L407,425Z" fill="#aae0d5" stroke="#aae0d5" stroke-width="1.51"/><path d="M811,84L679,102L824,237Z" fill="#d8f1eb" stroke="#d8f1eb" stroke-width="1.51"/><path d="M679,102L680,278L824,237Z" fill="#d0eee7" stroke="#d0eee7" stroke-width="1.51"/><path d="M680,278L675,357L824,237Z" fill="#c0e8df" stroke="#c0e8df" stroke-width="1.51"/><path d="M745,-215L818,-106L832,-189Z" fill="#b1e2d9" stroke="#b1e2d9" stroke-width="1.51"/><path d="M713,-42L679,102L811,84Z" fill="#e1f4f0" stroke="#e1f4f0" stroke-width="1.51"/><path d="M745,-215L713,-42L818,-106Z" fill="#bfe7de" stroke="#bfe7de" stroke-width="1.51"/><path d="M604,61L679,102L713,-42Z" fill="#e6f6f2" stroke="#e6f6f2" stroke-width="1.51"/><path d="M572,-104L713,-42L745,-215Z" fill="#c7eae3" stroke="#c7eae3" stroke-width="1.51"/><path d="M557,-256L572,-104L745,-215Z" fill="#bee7df" stroke="#bee7df" stroke-width="1.51"/><path d="M679,102L530,225L680,278Z" fill="#daf1ec" stroke="#daf1ec" stroke-width="1.51"/><path d="M572,-104L604,61L713,-42Z" fill="#ddf2ed" stroke="#ddf2ed" stroke-width="1.51"/><path d="M48,-273L201,-182L557,-256Z" fill="#b0e2d8" stroke="#b0e2d8" stroke-width="1.51"/><path d="M604,61L530,225L679,102Z" fill="#eaf7f4" stroke="#eaf7f4" stroke-width="1.51"/><path d="M544,354L675,357L680,278Z" fill="#c2e8e0" stroke="#c2e8e0" stroke-width="1.51"/><path d="M530,225L544,354L680,278Z" fill="#cfede7" stroke="#cfede7" stroke-width="1.51"/><path d="M201,-182L448,-175L557,-256Z" fill="#c4e9e1" stroke="#c4e9e1" stroke-width="1.51"/><path d="M557,-256L448,-175L572,-104Z" fill="#caebe4" stroke="#caebe4" stroke-width="1.51"/><path d="M426,214L530,225L604,61Z" fill="#ebf8f5" stroke="#ebf8f5" stroke-width="1.51"/><path d="M366,100L426,214L604,61Z" fill="#f6fcfa" stroke="#f6fcfa" stroke-width="1.51"/><path d="M572,-104L379,-107L604,61Z" fill="#e3f5f1" stroke="#e3f5f1" stroke-width="1.51"/><path d="M379,-107L366,100L604,61Z" fill="#f2faf8" stroke="#f2faf8" stroke-width="1.51"/><path d="M448,-175L379,-107L572,-104Z" fill="#d8f0eb" stroke="#d8f0eb" stroke-width="1.51"/><path d="M530,225L426,214L544,354Z" fill="#daf1ed" stroke="#daf1ed" stroke-width="1.51"/><path d="M211,346L104,351L407,425Z" fill="#b2e3d9" stroke="#b2e3d9" stroke-width="1.51"/><path d="M426,214L407,425L544,354Z" fill="#cfede7" stroke="#cfede7" stroke-width="1.51"/><path d="M285,62L366,100L379,-107Z" fill="#e8f6f3" stroke="#e8f6f3" stroke-width="1.51"/><path d="M301,282L407,425L426,214Z" fill="#cbece5" stroke="#cbece5" stroke-width="1.51"/><path d="M201,-182L379,-107L448,-175Z" fill="#c7eae3" stroke="#c7eae3" stroke-width="1.51"/><path d="M366,100L301,282L426,214Z" fill="#dff3ef" stroke="#dff3ef" stroke-width="1.51"/><path d="M301,282L211,346L407,425Z" fill="#bde6de" stroke="#bde6de" stroke-width="1.51"/><path d="M285,62L301,282L366,100Z" fill="#e4f5f1" stroke="#e4f5f1" stroke-width="1.51"/><path d="M215,-92L285,62L379,-107Z" fill="#d7f1ea" stroke="#d7f1ea" stroke-width="1.51"/><path d="M201,-182L215,-92L379,-107Z" fill="#c5eae1" stroke="#c5eae1" stroke-width="1.51"/><path d="M56,182L211,346L301,282Z" fill="#c1e8e0" stroke="#c1e8e0" stroke-width="1.51"/><path d="M285,62L72,119L301,282Z" fill="#daf1ec" stroke="#daf1ec" stroke-width="1.51"/><path d="M72,119L56,182L301,282Z" fill="#cbece5" stroke="#cbece5" stroke-width="1.51"/><path d="M215,-92L90,-44L285,62Z" fill="#d2efe8" stroke="#d2efe8" stroke-width="1.51"/><path d="M90,-44L72,119L285,62Z" fill="#daf1ed" stroke="#daf1ed" stroke-width="1.51"/><path d="M56,182L104,351L211,346Z" fill="#b7e4da" stroke="#b7e4da" stroke-width="1.51"/><path d="M201,-182L90,-44L215,-92Z" fill="#c0e8df" stroke="#c0e8df" stroke-width="1.51"/><path d="M48,-273L90,-44L201,-182Z" fill="#afe2d7" stroke="#afe2d7" stroke-width="1.51"/><path d="M48,-273L-54,-229L90,-44Z" fill="#a4ddd1" stroke="#a4ddd1" stroke-width="1.51"/><path d="M-54,-229L-23,-36L90,-44Z" fill="#b1e2d8" stroke="#b1e2d8" stroke-width="1.51"/><path d="M-34,59L72,119L90,-44Z" fill="#d0eee7" stroke="#d0eee7" stroke-width="1.51"/><path d="M-23,-36L-34,59L90,-44Z" fill="#c4e9e1" stroke="#c4e9e1" stroke-width="1.51"/><path d="M56,182L4,283L104,351Z" fill="#b4e3d9" stroke="#b4e3d9" stroke-width="1.51"/><path d="M4,283L-12,356L104,351Z" fill="#a6ded3" stroke="#a6ded3" stroke-width="1.51"/><path d="M-34,59L56,182L72,119Z" fill="#ceede6" stroke="#ceede6" stroke-width="1.51"/><path d="M-34,59L4,283L56,182Z" fill="#c2e9e0" stroke="#c2e9e0" stroke-width="1.51"/><path d="M-193,38L-252,200L-34,59Z" fill="#c0e7df" stroke="#c0e7df" stroke-width="1.51"/><path d="M-54,-229L-148,-185L-23,-36Z" fill="#a0dcd0" stroke="#a0dcd0" stroke-width="1.51"/><path d="M-34,59L-252,200L4,283Z" fill="#b7e4db" stroke="#b7e4db" stroke-width="1.51"/><path d="M-252,200L-157,359L4,283Z" fill="#9fdcd0" stroke="#9fdcd0" stroke-width="1.51"/><path d="M-157,359L-12,356L4,283Z" fill="#9ddbcf" stroke="#9ddbcf" stroke-width="1.51"/><path d="M-148,-185L-239,-98L-23,-36Z" fill="#a2ddd1" stroke="#a2ddd1" stroke-width="1.51"/><path d="M-239,-98L-193,38L-23,-36Z" fill="#afe2d7" stroke="#afe2d7" stroke-width="1.51"/><path d="M-193,38L-34,59L-23,-36Z" fill="#c0e8df" stroke="#c0e8df" stroke-width="1.51"/><path d="M-239,-98L-252,200L-193,38Z" fill="#b7e4db" stroke="#b7e4db" stroke-width="1.51"/></svg>