<svg xmlns="http://www.w3.org/2000/svg" width="300" height="90"><path d="M69,165L-81,187L184,189Z" fill="#abe0d5" stroke="#abe0d5" stroke-width="1.51"/><path d="M-14,-107L124,-86L186,-97Z" fill="#b4e3da" stroke="#b4e3da" stroke-width="1.51"/><path d="M-14,-107L186,-97L263,-104Z" fill="#bee7df" stroke="#bee7df" stroke-width="1.51"/><path d="M263,-104L318,-84L379,-95Z" fill="#93d8ca" stroke="#93d8ca" stroke-width="1.51"/><path d="M296,60L357,118L399,43Z" fill="#bde6de" stroke="#bde6de" stroke-width="1.51"/><path d="M355,-27L296,60L399,43Z" fill="#c1e8e0" stroke="#c1e8e0" stroke-width="1.51"/><path d="M379,-95L355,-27L399,43Z" fill="#a2ddd1" stroke="#a2ddd1" stroke-width="1.51"/><path d="M357,118L390,166L399,43Z" fill="#a4ded2" stroke="#a4ded2" stroke-width="1.51"/><path d="M326,-26L296,60L355,-27Z" fill="#bde7de" stroke="#bde7de" stroke-width="1.51"/><path d="M318,-84L355,-27L379,-95Z" fill="#96d8cb" stroke="#96d8cb" stroke-width="1.51"/><path d="M357,118L305,179L390,166Z" fill="#98d9cc" stroke="#98d9cc" stroke-width="1.51"/><path d="M296,60L315,115L357,118Z" fill="#bae5dc" stroke="#bae5dc" stroke-width="1.51"/><path d="M318,-84L326,-26L355,-27Z" fill="#a6ded3" stroke="#a6ded3" stroke-width="1.51"/><path d="M315,115L305,179L357,118Z" fill="#a7dfd3" stroke="#a7dfd3" stroke-width="1.51"/><path d="M257,130L305,179L315,115Z" fill="#afe1d7" stroke="#afe1d7" stroke-width="1.51"/><path d="M263,-104L230,-22L318,-84Z" fill="#ace1d6" stroke="#ace1d6" stroke-width="1.51"/><path d="M252,55L296,60L326,-26Z" fill="#d2efe8" stroke="#d2efe8" stroke-width="1.51"/><path d="M230,-22L252,55L326,-26Z" fill="#cdece5" stroke="#cdece5" stroke-width="1.51"/><path d="M318,-84L230,-22L326,-26Z" fill="#b2e2d9" stroke="#b2e2d9" stroke-width="1.51"/><path d="M237,151L184,189L305,179Z" fill="#afe2d7" stroke="#afe2d7" stroke-width="1.51"/><path d="M296,60L257,130L315,115Z" fill="#c1e8df" stroke="#c1e8df" stroke-width="1.51"/><path d="M252,55L257,130L296,60Z" fill="#d0ede7" stroke="#d0ede7" stroke-width="1.51"/><path d="M257,130L237,151L305,179Z" fill="#b0e2d8" stroke="#b0e2d8" stroke-width="1.51"/><path d="M-15,165L-81,187L69,165Z" fill="#9cdbce" stroke="#9cdbce" stroke-width="1.51"/><path d="M198,-3L196,28L230,-22Z" fill="#ddf2ed" stroke="#ddf2ed" stroke-width="1.51"/><path d="M230,-22L196,28L252,55Z" fill="#e0f4ef" stroke="#e0f4ef" stroke-width="1.51"/><path d="M252,55L168,117L257,130Z" fill="#d3efe8" stroke="#d3efe8" stroke-width="1.51"/><path d="M186,-97L230,-22L263,-104Z" fill="#b7e4db" stroke="#b7e4db" stroke-width="1.51"/><path d="M196,28L168,117L252,55Z" fill="#e7f6f3" stroke="#e7f6f3" stroke-width="1.51"/><path d="M168,117L237,151L257,130Z" fill="#c6eae2" stroke="#c6eae2" stroke-width="1.51"/><path d="M186,-97L198,-3L230,-22Z" fill="#ccece5" stroke="#ccece5" stroke-width="1.51"/><path d="M168,117L184,189L237,151Z" fill="#c4e9e1" stroke="#c4e9e1" stroke-width="1.51"/><path d="M127,155L69,165L184,189Z" fill="#c3e9e1" stroke="#c3e9e1" stroke-width="1.51"/><path d="M168,117L127,155L184,189Z" fill="#ceede6" stroke="#ceede6" stroke-width="1.51"/><path d="M124,-86L126,-19L186,-97Z" fill="#ceede6" stroke="#ceede6" stroke-width="1.51"/><path d="M114,34L136,85L196,28Z" fill="#fdfffe" stroke="#fdfffe" stroke-width="1.51"/><path d="M136,85L168,117L196,28Z" fill="#edf9f5" stroke="#edf9f5" stroke-width="1.51"/><path d="M126,-19L196,28L198,-3Z" fill="#e7f6f2" stroke="#e7f6f2" stroke-width="1.51"/><path d="M186,-97L126,-19L198,-3Z" fill="#d5f0ea" stroke="#d5f0ea" stroke-width="1.51"/><path d="M126,-19L114,34L196,28Z" fill="#f1faf8" stroke="#f1faf8" stroke-width="1.51"/><path d="M136,85L127,155L168,117Z" fill="#def3ee" stroke="#def3ee" stroke-width="1.51"/><path d="M-14,-107L54,-66L124,-86Z" fill="#ace0d6" stroke="#ace0d6" stroke-width="1.51"/><path d="M124,-86L54,-66L126,-19Z" fill="#c6eae2" stroke="#c6eae2" stroke-width="1.51"/><path d="M43,105L69,165L127,155Z" fill="#c2e9e0" stroke="#c2e9e0" stroke-width="1.51"/><path d="M114,34L39,60L136,85Z" fill="#eaf7f4" stroke="#eaf7f4" stroke-width="1.51"/><path d="M39,60L43,105L136,85Z" fill="#daf2ec" stroke="#daf2ec" stroke-width="1.51"/><path d="M43,105L127,155L136,85Z" fill="#d4efe9" stroke="#d4efe9" stroke-width="1.51"/><path d="M57,-15L114,34L126,-19Z" fill="#def3ee" stroke="#def3ee" stroke-width="1.51"/><path d="M54,-66L57,-15L126,-19Z" fill="#caece4" stroke="#caece4" stroke-width="1.51"/><path d="M57,-15L39,60L114,34Z" fill="#e2f4f0" stroke="#e2f4f0" stroke-width="1.51"/><path d="M-8,33L39,60L57,-15Z" fill="#d7f0ea" stroke="#d7f0ea" stroke-width="1.51"/><path d="M54,-66L10,-29L57,-15Z" fill="#bee7de" stroke="#bee7de" stroke-width="1.51"/><path d="M43,105L-15,165L69,165Z" fill="#b4e3d9" stroke="#b4e3d9" stroke-width="1.51"/><path d="M-20,114L-15,165L43,105Z" fill="#b3e3d9" stroke="#b3e3d9" stroke-width="1.51"/><path d="M10,-29L-8,33L57,-15Z" fill="#c7eae3" stroke="#c7eae3" stroke-width="1.51"/><path d="M-14,-107L10,-29L54,-66Z" fill="#aae0d5" stroke="#aae0d5" stroke-width="1.51"/><path d="M39,60L-20,114L43,105Z" fill="#c8ebe3" stroke="#c8ebe3" stroke-width="1.51"/><path d="M-8,33L-20,114L39,60Z" fill="#ceede6" stroke="#ceede6" stroke-width="1.51"/><path d="M-88,-94L-77,-17L-14,-107Z" fill="#92d7ca" stroke="#92d7ca" stroke-width="1.51"/><path d="M-77,-17L-8,33L10,-29Z" fill="#bae6dd" stroke="#bae6dd" stroke-width="1.51"/><path d="M-14,-107L-77,-17L10,-29Z" fill="#a5ded3" stroke="#a5ded3" stroke-width="1.51"/><path d="M-86,53L-20,114L-8,33Z" fill="#c3e9e1" stroke="#c3e9e1" stroke-width="1.51"/><path d="M-77,-17L-86,53L-8,33Z" fill="#bee7de" stroke="#bee7de" stroke-width="1.51"/><path d="M-86,53L-100,100L-20,114Z" fill="#b1e2d8" stroke="#b1e2d8" stroke-width="1.51"/><path d="M-20,114L-81,187L-15,165Z" fill="#9bdace" stroke="#9bdace" stroke-width="1.51"/><path d="M-100,100L-81,187L-20,114Z" fill="#9ddbcf" stroke="#9ddbcf" stroke-width="1.51"/><path d="M-88,-94L-86,53L-77,-17Z" fill="#a3ddd2" stroke="#a3ddd2" stroke-width="1.51"/><path d="M-88,-94L-100,100L-86,53Z" fill="#b2e3d9" stroke="#b2e3d9" stroke-width="1.51"/></svg>