<svg xmlns="http://www.w3.org/2000/svg" width="300" height="90"><path d="M71,167L-84,167L173,197Z" fill="#b4d7d0" stroke="#b4d7d0" stroke-width="1.51"/><path d="M225,186L173,197L295,186Z" fill="#aae0d5" stroke="#aae0d5" stroke-width="1.51"/><path d="M197,-99L258,-92L307,-91Z" fill="#b8c9c6" stroke="#b8c9c6" stroke-width="1.51"/><path d="M197,-99L307,-91L356,-88Z" fill="#b0c7c2" stroke="#b0c7c2" stroke-width="1.51"/><path d="M295,186L173,197L366,199Z" fill="#9bdace" stroke="#9bdace" stroke-width="1.51"/><path d="M360,100L320,117L366,199Z" fill="#a0dcd0" stroke="#a0dcd0" stroke-width="1.51"/><path d="M356,-88L304,-31L381,1Z" fill="#b0d1ca" stroke="#b0d1ca" stroke-width="1.51"/><path d="M381,1L309,23L391,24Z" fill="#bde0d9" stroke="#bde0d9" stroke-width="1.51"/><path d="M309,23L360,100L391,24Z" fill="#c7eae3" stroke="#c7eae3" stroke-width="1.51"/><path d="M360,100L366,199L391,24Z" fill="#a7dfd4" stroke="#a7dfd4" stroke-width="1.51"/><path d="M356,-88L381,1L391,24Z" fill="#aed3cc" stroke="#aed3cc" stroke-width="1.51"/><path d="M320,117L295,186L366,199Z" fill="#99d9cd" stroke="#99d9cd" stroke-width="1.51"/><path d="M304,-31L309,23L381,1Z" fill="#c0ded7" stroke="#c0ded7" stroke-width="1.51"/><path d="M307,-91L304,-31L356,-88Z" fill="#aecac4" stroke="#aecac4" stroke-width="1.51"/><path d="M309,23L320,117L360,100Z" fill="#c0e8df" stroke="#c0e8df" stroke-width="1.51"/><path d="M-24,-96L124,-76L197,-99Z" fill="#cbcbcb" stroke="#cbcbcb" stroke-width="1.51"/><path d="M258,-92L304,-31L307,-91Z" fill="#b5ccc7" stroke="#b5ccc7" stroke-width="1.51"/><path d="M248,58L264,106L309,23Z" fill="#d6f0ea" stroke="#d6f0ea" stroke-width="1.51"/><path d="M304,-31L258,0L309,23Z" fill="#cbe2dd" stroke="#cbe2dd" stroke-width="1.51"/><path d="M309,23L264,106L320,117Z" fill="#c7eae3" stroke="#c7eae3" stroke-width="1.51"/><path d="M264,106L295,186L320,117Z" fill="#b1e2d8" stroke="#b1e2d8" stroke-width="1.51"/><path d="M258,0L248,58L309,23Z" fill="#d8ede8" stroke="#d8ede8" stroke-width="1.51"/><path d="M264,106L225,186L295,186Z" fill="#afe2d7" stroke="#afe2d7" stroke-width="1.51"/><path d="M258,-92L258,0L304,-31Z" fill="#c3d8d3" stroke="#c3d8d3" stroke-width="1.51"/><path d="M197,-99L196,-13L258,-92Z" fill="#cad5d2" stroke="#cad5d2" stroke-width="1.51"/><path d="M258,-92L196,-13L258,0Z" fill="#cfddda" stroke="#cfddda" stroke-width="1.51"/><path d="M196,-13L248,58L258,0Z" fill="#dfedea" stroke="#dfedea" stroke-width="1.51"/><path d="M248,58L203,122L264,106Z" fill="#d2eee8" stroke="#d2eee8" stroke-width="1.51"/><path d="M203,122L225,186L264,106Z" fill="#c1e8e0" stroke="#c1e8e0" stroke-width="1.51"/><path d="M196,-13L172,24L248,58Z" fill="#e9f3f0" stroke="#e9f3f0" stroke-width="1.51"/><path d="M172,24L203,122L248,58Z" fill="#e6f6f2" stroke="#e6f6f2" stroke-width="1.51"/><path d="M203,122L173,197L225,186Z" fill="#bce6dd" stroke="#bce6dd" stroke-width="1.51"/><path d="M-18,153L-84,167L71,167Z" fill="#aecdc6" stroke="#aecdc6" stroke-width="1.51"/><path d="M-24,-96L48,-65L124,-76Z" fill="#c4c4c4" stroke="#c4c4c4" stroke-width="1.51"/><path d="M124,-76L196,-13L197,-99Z" fill="#d7dbda" stroke="#d7dbda" stroke-width="1.51"/><path d="M172,24L106,96L203,122Z" fill="#edf9f5" stroke="#edf9f5" stroke-width="1.51"/><path d="M106,96L139,170L203,122Z" fill="#dbf2ed" stroke="#dbf2ed" stroke-width="1.51"/><path d="M139,170L173,197L203,122Z" fill="#c6eae2" stroke="#c6eae2" stroke-width="1.51"/><path d="M109,39L106,96L172,24Z" fill="#f8f9f9" stroke="#f8f9f9" stroke-width="1.51"/><path d="M124,-76L100,-38L196,-13Z" fill="#e1e1e1" stroke="#e1e1e1" stroke-width="1.51"/><path d="M100,-38L172,24L196,-13Z" fill="#eceded" stroke="#eceded" stroke-width="1.51"/><path d="M100,-38L109,39L172,24Z" fill="#efefef" stroke="#efefef" stroke-width="1.51"/><path d="M139,170L71,167L173,197Z" fill="#c1e5de" stroke="#c1e5de" stroke-width="1.51"/><path d="M106,96L71,167L139,170Z" fill="#cce6e0" stroke="#cce6e0" stroke-width="1.51"/><path d="M69,107L71,167L106,96Z" fill="#d0e5e0" stroke="#d0e5e0" stroke-width="1.51"/><path d="M100,-38L70,-27L109,39Z" fill="#e2e2e2" stroke="#e2e2e2" stroke-width="1.51"/><path d="M48,-65L100,-38L124,-76Z" fill="#d2d2d2" stroke="#d2d2d2" stroke-width="1.51"/><path d="M70,-27L42,25L109,39Z" fill="#e5e5e5" stroke="#e5e5e5" stroke-width="1.51"/><path d="M69,107L106,96L109,39Z" fill="#e5efec" stroke="#e5efec" stroke-width="1.51"/><path d="M42,25L69,107L109,39Z" fill="#ebeeed" stroke="#ebeeed" stroke-width="1.51"/><path d="M48,-65L70,-27L100,-38Z" fill="#d3d3d3" stroke="#d3d3d3" stroke-width="1.51"/><path d="M42,25L5,41L69,107Z" fill="#e3e7e6" stroke="#e3e7e6" stroke-width="1.51"/><path d="M5,41L-15,127L69,107Z" fill="#d2dedb" stroke="#d2dedb" stroke-width="1.51"/><path d="M-18,-18L42,25L70,-27Z" fill="#d7d7d7" stroke="#d7d7d7" stroke-width="1.51"/><path d="M69,107L-15,127L71,167Z" fill="#c4dbd6" stroke="#c4dbd6" stroke-width="1.51"/><path d="M-15,127L-18,153L71,167Z" fill="#b8d3cd" stroke="#b8d3cd" stroke-width="1.51"/><path d="M48,-65L-18,-18L70,-27Z" fill="#cecece" stroke="#cecece" stroke-width="1.51"/><path d="M-18,-18L5,41L42,25Z" fill="#dadada" stroke="#dadada" stroke-width="1.51"/><path d="M-24,-96L-18,-18L48,-65Z" fill="#c1c1c1" stroke="#c1c1c1" stroke-width="1.51"/><path d="M-68,66L-15,127L5,41Z" fill="#ced7d5" stroke="#ced7d5" stroke-width="1.51"/><path d="M-18,-18L-68,66L5,41Z" fill="#d7d7d7" stroke="#d7d7d7" stroke-width="1.51"/><path d="M-99,4L-68,66L-18,-18Z" fill="#cdcdcd" stroke="#cdcdcd" stroke-width="1.51"/><path d="M-24,-96L-69,-91L-18,-18Z" fill="#b7b7b7" stroke="#b7b7b7" stroke-width="1.51"/><path d="M-69,-91L-99,4L-18,-18Z" fill="#bdbdbd" stroke="#bdbdbd" stroke-width="1.51"/><path d="M-68,66L-93,114L-15,127Z" fill="#becdca" stroke="#becdca" stroke-width="1.51"/><path d="M-84,167L-18,153L-15,127Z" fill="#aec9c3" stroke="#aec9c3" stroke-width="1.51"/><path d="M-93,114L-84,167L-15,127Z" fill="#afc7c2" stroke="#afc7c2" stroke-width="1.51"/><path d="M-99,4L-93,114L-68,66Z" fill="#cacecd" stroke="#cacecd" stroke-width="1.51"/></svg>