<svg xmlns="http://www.w3.org/2000/svg" width="948" height="160"><path d="M-12,356L-157,359L407,425Z" fill="#adcfc8" stroke="#adcfc8" stroke-width="1.51"/><path d="M557,-256L745,-215L991,-222Z" fill="#bacbc7" stroke="#bacbc7" stroke-width="1.51"/><path d="M1148,-65L1118,47L1149,208Z" fill="#bee5de" stroke="#bee5de" stroke-width="1.51"/><path d="M875,415L407,425L1201,430Z" fill="#9cdbcf" stroke="#9cdbcf" stroke-width="1.51"/><path d="M1013,409L875,415L1201,430Z" fill="#89d4c6" stroke="#89d4c6" stroke-width="1.51"/><path d="M1149,208L1013,409L1201,430Z" fill="#8ed5c8" stroke="#8ed5c8" stroke-width="1.51"/><path d="M1010,-95L1148,-65L1203,-179Z" fill="#a9cec6" stroke="#a9cec6" stroke-width="1.51"/><path d="M991,-222L1010,-95L1203,-179Z" fill="#a7c9c2" stroke="#a7c9c2" stroke-width="1.51"/><path d="M1149,208L1201,430L1203,-179Z" fill="#aee1d7" stroke="#aee1d7" stroke-width="1.51"/><path d="M1148,-65L1149,208L1203,-179Z" fill="#b2dad2" stroke="#b2dad2" stroke-width="1.51"/><path d="M1010,-95L1118,47L1148,-65Z" fill="#b6dad2" stroke="#b6dad2" stroke-width="1.51"/><path d="M961,276L1013,409L1149,208Z" fill="#a0dcd0" stroke="#a0dcd0" stroke-width="1.51"/><path d="M1118,47L956,128L1149,208Z" fill="#bee7de" stroke="#bee7de" stroke-width="1.51"/><path d="M956,128L961,276L1149,208Z" fill="#b5e4da" stroke="#b5e4da" stroke-width="1.51"/><path d="M745,-215L832,-189L991,-222Z" fill="#b5cac6" stroke="#b5cac6" stroke-width="1.51"/><path d="M1010,-95L956,128L1118,47Z" fill="#c4e4de" stroke="#c4e4de" stroke-width="1.51"/><path d="M675,357L407,425L875,415Z" fill="#b2e3d9" stroke="#b2e3d9" stroke-width="1.51"/><path d="M811,84L956,128L1010,-95Z" fill="#d0eae4" stroke="#d0eae4" stroke-width="1.51"/><path d="M818,-106L811,84L1010,-95Z" fill="#c9e1db" stroke="#c9e1db" stroke-width="1.51"/><path d="M991,-222L832,-189L1010,-95Z" fill="#b2cdc7" stroke="#b2cdc7" stroke-width="1.51"/><path d="M832,-189L818,-106L1010,-95Z" fill="#bdd4cf" stroke="#bdd4cf" stroke-width="1.51"/><path d="M961,276L875,415L1013,409Z" fill="#9cdbce" stroke="#9cdbce" stroke-width="1.51"/><path d="M956,128L824,237L961,276Z" fill="#bde6de" stroke="#bde6de" stroke-width="1.51"/><path d="M824,237L875,415L961,276Z" fill="#aee1d6" stroke="#aee1d6" stroke-width="1.51"/><path d="M811,84L824,237L956,128Z" fill="#ceede6" stroke="#ceede6" stroke-width="1.51"/><path d="M544,354L407,425L675,357Z" fill="#c1e8e0" stroke="#c1e8e0" stroke-width="1.51"/><path d="M713,-42L811,84L818,-106Z" fill="#d5e7e2" stroke="#d5e7e2" stroke-width="1.51"/><path d="M824,237L675,357L875,415Z" fill="#b1e2d8" stroke="#b1e2d8" stroke-width="1.51"/><path d="M104,351L-12,356L407,425Z" fill="#b3d5ce" stroke="#b3d5ce" stroke-width="1.51"/><path d="M811,84L679,102L824,237Z" fill="#d8f1eb" stroke="#d8f1eb" stroke-width="1.51"/><path d="M679,102L680,278L824,237Z" fill="#d0eee7" stroke="#d0eee7" stroke-width="1.51"/><path d="M680,278L675,357L824,237Z" fill="#c0e8df" stroke="#c0e8df" stroke-width="1.51"/><path d="M745,-215L818,-106L832,-189Z" fill="#bfd1ce" stroke="#bfd1ce" stroke-width="1.51"/><path d="M713,-42L679,102L811,84Z" fill="#e3f2ee" stroke="#e3f2ee" stroke-width="1.51"/><path d="M745,-215L713,-42L818,-106Z" fill="#c9d9d6" stroke="#c9d9d6" stroke-width="1.51"/><path d="M604,61L679,102L713,-42Z" fill="#e8f3f0" stroke="#e8f3f0" stroke-width="1.51"/><path d="M572,-104L713,-42L745,-215Z" fill="#d1dcda" stroke="#d1dcda" stroke-width="1.51"/><path d="M557,-256L572,-104L745,-215Z" fill="#ccd5d3" stroke="#ccd5d3" stroke-width="1.51"/><path d="M679,102L530,225L680,278Z" fill="#daf1ec" stroke="#daf1ec" stroke-width="1.51"/><path d="M572,-104L604,61L713,-42Z" fill="#e2eae8" stroke="#e2eae8" stroke-width="1.51"/><path d="M48,-273L201,-182L557,-256Z" fill="#c6c6c6" stroke="#c6c6c6" stroke-width="1.51"/><path d="M604,61L530,225L679,102Z" fill="#eaf7f4" stroke="#eaf7f4" stroke-width="1.51"/><path d="M544,354L675,357L680,278Z" fill="#c2e8e0" stroke="#c2e8e0" stroke-width="1.51"/><path d="M530,225L544,354L680,278Z" fill="#cfede7" stroke="#cfede7" stroke-width="1.51"/><path d="M201,-182L448,-175L557,-256Z" fill="#d3d3d3" stroke="#d3d3d3" stroke-width="1.51"/><path d="M557,-256L448,-175L572,-104Z" fill="#d7dad9" stroke="#d7dad9" stroke-width="1.51"/><path d="M426,214L530,225L604,61Z" fill="#ebf8f5" stroke="#ebf8f5" stroke-width="1.51"/><path d="M366,100L426,214L604,61Z" fill="#f6fcfa" stroke="#f6fcfa" stroke-width="1.51"/><path d="M572,-104L379,-107L604,61Z" fill="#e9ebeb" stroke="#e9ebeb" stroke-width="1.51"/><path d="M379,-107L366,100L604,61Z" fill="#f5f5f5" stroke="#f5f5f5" stroke-width="1.51"/><path d="M448,-175L379,-107L572,-104Z" fill="#e2e2e2" stroke="#e2e2e2" stroke-width="1.51"/><path d="M530,225L426,214L544,354Z" fill="#daf1ed" stroke="#daf1ed" stroke-width="1.51"/><path d="M211,346L104,351L407,425Z" fill="#b9dbd4" stroke="#b9dbd4" stroke-width="1.51"/><path d="M426,214L407,425L544,354Z" fill="#cfede6" stroke="#cfede6" stroke-width="1.51"/><path d="M285,62L366,100L379,-107Z" fill="#ededed" stroke="#ededed" stroke-width="1.51"/><path d="M301,282L407,425L426,214Z" fill="#cee9e3" stroke="#cee9e3" stroke-width="1.51"/><path d="M201,-182L379,-107L448,-175Z" fill="#d6d6d6" stroke="#d6d6d6" stroke-width="1.51"/><path d="M366,100L301,282L426,214Z" fill="#e2f0ec" stroke="#e2f0ec" stroke-width="1.51"/><path d="M301,282L211,346L407,425Z" fill="#c1e1da" stroke="#c1e1da" stroke-width="1.51"/><path d="M285,62L301,282L366,100Z" fill="#e8f0ed" stroke="#e8f0ed" stroke-width="1.51"/><path d="M215,-92L285,62L379,-107Z" fill="#e1e1e1" stroke="#e1e1e1" stroke-width="1.51"/><path d="M201,-182L215,-92L379,-107Z" fill="#d4d4d4" stroke="#d4d4d4" stroke-width="1.51"/><path d="M56,182L211,346L301,282Z" fill="#c9dfda" stroke="#c9dfda" stroke-width="1.51"/><path d="M285,62L72,119L301,282Z" fill="#e0e8e6" stroke="#e0e8e6" stroke-width="1.51"/><path d="M72,119L56,182L301,282Z" fill="#d4e0de" stroke="#d4e0de" stroke-width="1.51"/><path d="M215,-92L90,-44L285,62Z" fill="#dddddd" stroke="#dddddd" stroke-width="1.51"/><path d="M90,-44L72,119L285,62Z" fill="#e4e4e4" stroke="#e4e4e4" stroke-width="1.51"/><path d="M56,182L104,351L211,346Z" fill="#c0d8d3" stroke="#c0d8d3" stroke-width="1.51"/><path d="M201,-182L90,-44L215,-92Z" fill="#d0d0d0" stroke="#d0d0d0" stroke-width="1.51"/><path d="M48,-273L90,-44L201,-182Z" fill="#c5c5c5" stroke="#c5c5c5" stroke-width="1.51"/><path d="M48,-273L-54,-229L90,-44Z" fill="#bdbdbd" stroke="#bdbdbd" stroke-width="1.51"/><path d="M-54,-229L-23,-36L90,-44Z" fill="#c6c6c6" stroke="#c6c6c6" stroke-width="1.51"/><path d="M-34,59L72,119L90,-44Z" fill="#dcdcdc" stroke="#dcdcdc" stroke-width="1.51"/><path d="M-23,-36L-34,59L90,-44Z" fill="#d3d3d3" stroke="#d3d3d3" stroke-width="1.51"/><path d="M56,182L4,283L104,351Z" fill="#bfd5d0" stroke="#bfd5d0" stroke-width="1.51"/><path d="M4,283L-12,356L104,351Z" fill="#b3d0ca" stroke="#b3d0ca" stroke-width="1.51"/><path d="M-34,59L56,182L72,119Z" fill="#d9dedd" stroke="#d9dedd" stroke-width="1.51"/><path d="M-34,59L4,283L56,182Z" fill="#ced9d6" stroke="#ced9d6" stroke-width="1.51"/><path d="M-193,38L-252,200L-34,59Z" fill="#d0d2d2" stroke="#d0d2d2" stroke-width="1.51"/><path d="M-54,-229L-148,-185L-23,-36Z" fill="#bbbbbb" stroke="#bbbbbb" stroke-width="1.51"/><path d="M-34,59L-252,200L4,283Z" fill="#c6d1cf" stroke="#c6d1cf" stroke-width="1.51"/><path d="M-252,200L-157,359L4,283Z" fill="#b1c8c3" stroke="#b1c8c3" stroke-width="1.51"/><path d="M-157,359L-12,356L4,283Z" fill="#adcac3" stroke="#adcac3" stroke-width="1.51"/><path d="M-148,-185L-239,-98L-23,-36Z" fill="#bcbcbc" stroke="#bcbcbc" stroke-width="1.51"/><path d="M-239,-98L-193,38L-23,-36Z" fill="#c5c5c5" stroke="#c5c5c5" stroke-width="1.51"/><path d="M-193,38L-34,59L-23,-36Z" fill="#d1d1d1" stroke="#d1d1d1" stroke-width="1.51"/><path d="M-239,-98L-252,200L-193,38Z" fill="#cbcbcb" stroke="#cbcbcb" stroke-width="1.51"/></svg>