<svg xmlns="http://www.w3.org/2000/svg" width="948" height="160"><path d="M-12,356L-157,359L407,425Z" fill="#bbbbbb" stroke="#bbbbbb" stroke-width="1.51"/><path d="M557,-256L745,-215L991,-222Z" fill="#c1c1c1" stroke="#c1c1c1" stroke-width="1.51"/><path d="M1148,-65L1118,47L1149,208Z" fill="#cfcfcf" stroke="#cfcfcf" stroke-width="1.51"/><path d="M875,415L407,425L1201,430Z" fill="#b9b9b9" stroke="#b9b9b9" stroke-width="1.51"/><path d="M1013,409L875,415L1201,430Z" fill="#acacac" stroke="#acacac" stroke-width="1.51"/><path d="M1149,208L1013,409L1201,430Z" fill="#afafaf" stroke="#afafaf" stroke-width="1.51"/><path d="M1010,-95L1148,-65L1203,-179Z" fill="#b9b9b9" stroke="#b9b9b9" stroke-width="1.51"/><path d="M991,-222L1010,-95L1203,-179Z" fill="#b6b6b6" stroke="#b6b6b6" stroke-width="1.51"/><path d="M1149,208L1201,430L1203,-179Z" fill="#c5c5c5" stroke="#c5c5c5" stroke-width="1.51"/><path d="M1148,-65L1149,208L1203,-179Z" fill="#c3c3c3" stroke="#c3c3c3" stroke-width="1.51"/><path d="M1010,-95L1118,47L1148,-65Z" fill="#c5c5c5" stroke="#c5c5c5" stroke-width="1.51"/><path d="M961,276L1013,409L1149,208Z" fill="#bbbbbb" stroke="#bbbbbb" stroke-width="1.51"/><path d="M1118,47L956,128L1149,208Z" fill="#cfcfcf" stroke="#cfcfcf" stroke-width="1.51"/><path d="M956,128L961,276L1149,208Z" fill="#c9c9c9" stroke="#c9c9c9" stroke-width="1.51"/><path d="M745,-215L832,-189L991,-222Z" fill="#bebebe" stroke="#bebebe" stroke-width="1.51"/><path d="M1010,-95L956,128L1118,47Z" fill="#d2d2d2" stroke="#d2d2d2" stroke-width="1.51"/><path d="M675,357L407,425L875,415Z" fill="#c7c7c7" stroke="#c7c7c7" stroke-width="1.51"/><path d="M811,84L956,128L1010,-95Z" fill="#dbdbdb" stroke="#dbdbdb" stroke-width="1.51"/><path d="M818,-106L811,84L1010,-95Z" fill="#d3d3d3" stroke="#d3d3d3" stroke-width="1.51"/><path d="M991,-222L832,-189L1010,-95Z" fill="#bdbdbd" stroke="#bdbdbd" stroke-width="1.51"/><path d="M832,-189L818,-106L1010,-95Z" fill="#c6c6c6" stroke="#c6c6c6" stroke-width="1.51"/><path d="M961,276L875,415L1013,409Z" fill="#b8b8b8" stroke="#b8b8b8" stroke-width="1.51"/><path d="M956,128L824,237L961,276Z" fill="#cecece" stroke="#cecece" stroke-width="1.51"/><path d="M824,237L875,415L961,276Z" fill="#c4c4c4" stroke="#c4c4c4" stroke-width="1.51"/><path d="M811,84L824,237L956,128Z" fill="#dbdbdb" stroke="#dbdbdb" stroke-width="1.51"/><path d="M544,354L407,425L675,357Z" fill="#d2d2d2" stroke="#d2d2d2" stroke-width="1.51"/><path d="M713,-42L811,84L818,-106Z" fill="#dcdcdc" stroke="#dcdcdc" stroke-width="1.51"/><path d="M824,237L675,357L875,415Z" fill="#c7c7c7" stroke="#c7c7c7" stroke-width="1.51"/><path d="M104,351L-12,356L407,425Z" fill="#c2c2c2" stroke="#c2c2c2" stroke-width="1.51"/><path d="M811,84L679,102L824,237Z" fill="#e2e2e2" stroke="#e2e2e2" stroke-width="1.51"/><path d="M679,102L680,278L824,237Z" fill="#dcdcdc" stroke="#dcdcdc" stroke-width="1.51"/><path d="M680,278L675,357L824,237Z" fill="#d1d1d1" stroke="#d1d1d1" stroke-width="1.51"/><path d="M745,-215L818,-106L832,-189Z" fill="#c7c7c7" stroke="#c7c7c7" stroke-width="1.51"/><path d="M713,-42L679,102L811,84Z" fill="#e8e8e8" stroke="#e8e8e8" stroke-width="1.51"/><path d="M745,-215L713,-42L818,-106Z" fill="#d0d0d0" stroke="#d0d0d0" stroke-width="1.51"/><path d="M604,61L679,102L713,-42Z" fill="#ececec" stroke="#ececec" stroke-width="1.51"/><path d="M572,-104L713,-42L745,-215Z" fill="#d5d5d5" stroke="#d5d5d5" stroke-width="1.51"/><path d="M557,-256L572,-104L745,-215Z" fill="#d0d0d0" stroke="#d0d0d0" stroke-width="1.51"/><path d="M679,102L530,225L680,278Z" fill="#e4e4e4" stroke="#e4e4e4" stroke-width="1.51"/><path d="M572,-104L604,61L713,-42Z" fill="#e5e5e5" stroke="#e5e5e5" stroke-width="1.51"/><path d="M48,-273L201,-182L557,-256Z" fill="#c6c6c6" stroke="#c6c6c6" stroke-width="1.51"/><path d="M604,61L530,225L679,102Z" fill="#efefef" stroke="#efefef" stroke-width="1.51"/><path d="M544,354L675,357L680,278Z" fill="#d2d2d2" stroke="#d2d2d2" stroke-width="1.51"/><path d="M530,225L544,354L680,278Z" fill="#dbdbdb" stroke="#dbdbdb" stroke-width="1.51"/><path d="M201,-182L448,-175L557,-256Z" fill="#d3d3d3" stroke="#d3d3d3" stroke-width="1.51"/><path d="M557,-256L448,-175L572,-104Z" fill="#d8d8d8" stroke="#d8d8d8" stroke-width="1.51"/><path d="M426,214L530,225L604,61Z" fill="#f0f0f0" stroke="#f0f0f0" stroke-width="1.51"/><path d="M366,100L426,214L604,61Z" fill="#f8f8f8" stroke="#f8f8f8" stroke-width="1.51"/><path d="M572,-104L379,-107L604,61Z" fill="#eaeaea" stroke="#eaeaea" stroke-width="1.51"/><path d="M379,-107L366,100L604,61Z" fill="#f5f5f5" stroke="#f5f5f5" stroke-width="1.51"/><path d="M448,-175L379,-107L572,-104Z" fill="#e2e2e2" stroke="#e2e2e2" stroke-width="1.51"/><path d="M530,225L426,214L544,354Z" fill="#e4e4e4" stroke="#e4e4e4" stroke-width="1.51"/><path d="M211,346L104,351L407,425Z" fill="#c7c7c7" stroke="#c7c7c7" stroke-width="1.51"/><path d="M426,214L407,425L544,354Z" fill="#dcdcdc" stroke="#dcdcdc" stroke-width="1.51"/><path d="M285,62L366,100L379,-107Z" fill="#ededed" stroke="#ededed" stroke-width="1.51"/><path d="M301,282L407,425L426,214Z" fill="#d9d9d9" stroke="#d9d9d9" stroke-width="1.51"/><path d="M201,-182L379,-107L448,-175Z" fill="#d6d6d6" stroke="#d6d6d6" stroke-width="1.51"/><path d="M366,100L301,282L426,214Z" fill="#e7e7e7" stroke="#e7e7e7" stroke-width="1.51"/><path d="M301,282L211,346L407,425Z" fill="#cfcfcf" stroke="#cfcfcf" stroke-width="1.51"/><path d="M285,62L301,282L366,100Z" fill="#eaeaea" stroke="#eaeaea" stroke-width="1.51"/><path d="M215,-92L285,62L379,-107Z" fill="#e1e1e1" stroke="#e1e1e1" stroke-width="1.51"/><path d="M201,-182L215,-92L379,-107Z" fill="#d4d4d4" stroke="#d4d4d4" stroke-width="1.51"/><path d="M56,182L211,346L301,282Z" fill="#d1d1d1" stroke="#d1d1d1" stroke-width="1.51"/><path d="M285,62L72,119L301,282Z" fill="#e3e3e3" stroke="#e3e3e3" stroke-width="1.51"/><path d="M72,119L56,182L301,282Z" fill="#d9d9d9" stroke="#d9d9d9" stroke-width="1.51"/><path d="M215,-92L90,-44L285,62Z" fill="#dddddd" stroke="#dddddd" stroke-width="1.51"/><path d="M90,-44L72,119L285,62Z" fill="#e4e4e4" stroke="#e4e4e4" stroke-width="1.51"/><path d="M56,182L104,351L211,346Z" fill="#cacaca" stroke="#cacaca" stroke-width="1.51"/><path d="M201,-182L90,-44L215,-92Z" fill="#d0d0d0" stroke="#d0d0d0" stroke-width="1.51"/><path d="M48,-273L90,-44L201,-182Z" fill="#c5c5c5" stroke="#c5c5c5" stroke-width="1.51"/><path d="M48,-273L-54,-229L90,-44Z" fill="#bdbdbd" stroke="#bdbdbd" stroke-width="1.51"/><path d="M-54,-229L-23,-36L90,-44Z" fill="#c6c6c6" stroke="#c6c6c6" stroke-width="1.51"/><path d="M-34,59L72,119L90,-44Z" fill="#dcdcdc" stroke="#dcdcdc" stroke-width="1.51"/><path d="M-23,-36L-34,59L90,-44Z" fill="#d3d3d3" stroke="#d3d3d3" stroke-width="1.51"/><path d="M56,182L4,283L104,351Z" fill="#c8c8c8" stroke="#c8c8c8" stroke-width="1.51"/><path d="M4,283L-12,356L104,351Z" fill="#bfbfbf" stroke="#bfbfbf" stroke-width="1.51"/><path d="M-34,59L56,182L72,119Z" fill="#dbdbdb" stroke="#dbdbdb" stroke-width="1.51"/><path d="M-34,59L4,283L56,182Z" fill="#d2d2d2" stroke="#d2d2d2" stroke-width="1.51"/><path d="M-193,38L-252,200L-34,59Z" fill="#d1d1d1" stroke="#d1d1d1" stroke-width="1.51"/><path d="M-54,-229L-148,-185L-23,-36Z" fill="#bbbbbb" stroke="#bbbbbb" stroke-width="1.51"/><path d="M-34,59L-252,200L4,283Z" fill="#cacaca" stroke="#cacaca" stroke-width="1.51"/><path d="M-252,200L-157,359L4,283Z" fill="#bababa" stroke="#bababa" stroke-width="1.51"/><path d="M-157,359L-12,356L4,283Z" fill="#b9b9b9" stroke="#b9b9b9" stroke-width="1.51"/><path d="M-148,-185L-239,-98L-23,-36Z" fill="#bcbcbc" stroke="#bcbcbc" stroke-width="1.51"/><path d="M-239,-98L-193,38L-23,-36Z" fill="#c5c5c5" stroke="#c5c5c5" stroke-width="1.51"/><path d="M-193,38L-34,59L-23,-36Z" fill="#d1d1d1" stroke="#d1d1d1" stroke-width="1.51"/><path d="M-239,-98L-252,200L-193,38Z" fill="#cbcbcb" stroke="#cbcbcb" stroke-width="1.51"/></svg>