<svg xmlns="http://www.w3.org/2000/svg" width="300" height="90"><path d="M119,188L-34,185L201,192Z" fill="#c7c7c7" stroke="#c7c7c7" stroke-width="1.51"/><path d="M49,-109L239,-76L324,-75Z" fill="#cbcbcb" stroke="#cbcbcb" stroke-width="1.51"/><path d="M326,105L368,157L382,93Z" fill="#bfbfbf" stroke="#bfbfbf" stroke-width="1.51"/><path d="M319,68L382,93L395,40Z" fill="#cecece" stroke="#cecece" stroke-width="1.51"/><path d="M366,-21L319,68L395,40Z" fill="#d0d0d0" stroke="#d0d0d0" stroke-width="1.51"/><path d="M368,-67L366,-21L395,40Z" fill="#bfbfbf" stroke="#bfbfbf" stroke-width="1.51"/><path d="M382,93L368,157L395,40Z" fill="#c1c1c1" stroke="#c1c1c1" stroke-width="1.51"/><path d="M291,-16L319,68L366,-21Z" fill="#d2d2d2" stroke="#d2d2d2" stroke-width="1.51"/><path d="M319,68L326,105L382,93Z" fill="#cbcbcb" stroke="#cbcbcb" stroke-width="1.51"/><path d="M232,166L201,192L334,173Z" fill="#c1c1c1" stroke="#c1c1c1" stroke-width="1.51"/><path d="M324,-75L291,-16L366,-21Z" fill="#c2c2c2" stroke="#c2c2c2" stroke-width="1.51"/><path d="M324,-75L366,-21L368,-67Z" fill="#b8b8b8" stroke="#b8b8b8" stroke-width="1.51"/><path d="M326,105L334,173L368,157Z" fill="#bababa" stroke="#bababa" stroke-width="1.51"/><path d="M72,179L-34,185L119,188Z" fill="#c0c0c0" stroke="#c0c0c0" stroke-width="1.51"/><path d="M49,-109L184,-64L239,-76Z" fill="#d5d5d5" stroke="#d5d5d5" stroke-width="1.51"/><path d="M267,-36L291,-16L324,-75Z" fill="#c7c7c7" stroke="#c7c7c7" stroke-width="1.51"/><path d="M237,100L232,166L326,105Z" fill="#cfcfcf" stroke="#cfcfcf" stroke-width="1.51"/><path d="M326,105L232,166L334,173Z" fill="#c2c2c2" stroke="#c2c2c2" stroke-width="1.51"/><path d="M291,-16L243,67L319,68Z" fill="#e3e3e3" stroke="#e3e3e3" stroke-width="1.51"/><path d="M319,68L237,100L326,105Z" fill="#d4d4d4" stroke="#d4d4d4" stroke-width="1.51"/><path d="M243,67L237,100L319,68Z" fill="#dddddd" stroke="#dddddd" stroke-width="1.51"/><path d="M239,-76L267,-36L324,-75Z" fill="#c4c4c4" stroke="#c4c4c4" stroke-width="1.51"/><path d="M205,51L243,67L267,-36Z" fill="#e8e8e8" stroke="#e8e8e8" stroke-width="1.51"/><path d="M267,-36L243,67L291,-16Z" fill="#dbdbdb" stroke="#dbdbdb" stroke-width="1.51"/><path d="M239,-76L175,-33L267,-36Z" fill="#d2d2d2" stroke="#d2d2d2" stroke-width="1.51"/><path d="M175,-33L205,51L267,-36Z" fill="#e2e2e2" stroke="#e2e2e2" stroke-width="1.51"/><path d="M49,-109L113,-61L184,-64Z" fill="#d1d1d1" stroke="#d1d1d1" stroke-width="1.51"/><path d="M167,94L232,166L237,100Z" fill="#dbdbdb" stroke="#dbdbdb" stroke-width="1.51"/><path d="M184,-64L175,-33L239,-76Z" fill="#d5d5d5" stroke="#d5d5d5" stroke-width="1.51"/><path d="M205,51L237,100L243,67Z" fill="#e6e6e6" stroke="#e6e6e6" stroke-width="1.51"/><path d="M205,51L167,94L237,100Z" fill="#e9e9e9" stroke="#e9e9e9" stroke-width="1.51"/><path d="M167,94L201,192L232,166Z" fill="#d4d4d4" stroke="#d4d4d4" stroke-width="1.51"/><path d="M102,125L119,188L167,94Z" fill="#dedede" stroke="#dedede" stroke-width="1.51"/><path d="M112,-14L103,32L175,-33Z" fill="#ebebeb" stroke="#ebebeb" stroke-width="1.51"/><path d="M167,94L119,188L201,192Z" fill="#d9d9d9" stroke="#d9d9d9" stroke-width="1.51"/><path d="M175,-33L103,32L205,51Z" fill="#f4f4f4" stroke="#f4f4f4" stroke-width="1.51"/><path d="M103,32L167,94L205,51Z" fill="#f9f9f9" stroke="#f9f9f9" stroke-width="1.51"/><path d="M113,-61L175,-33L184,-64Z" fill="#dfdfdf" stroke="#dfdfdf" stroke-width="1.51"/><path d="M113,-61L112,-14L175,-33Z" fill="#e2e2e2" stroke="#e2e2e2" stroke-width="1.51"/><path d="M103,32L102,125L167,94Z" fill="#ededed" stroke="#ededed" stroke-width="1.51"/><path d="M74,56L102,125L103,32Z" fill="#ebebeb" stroke="#ebebeb" stroke-width="1.51"/><path d="M102,125L72,179L119,188Z" fill="#cfcfcf" stroke="#cfcfcf" stroke-width="1.51"/><path d="M74,56L53,123L102,125Z" fill="#dedede" stroke="#dedede" stroke-width="1.51"/><path d="M31,-16L103,32L112,-14Z" fill="#e3e3e3" stroke="#e3e3e3" stroke-width="1.51"/><path d="M31,-16L112,-14L113,-61Z" fill="#dadada" stroke="#dadada" stroke-width="1.51"/><path d="M49,-109L31,-16L113,-61Z" fill="#cccccc" stroke="#cccccc" stroke-width="1.51"/><path d="M53,123L72,179L102,125Z" fill="#d1d1d1" stroke="#d1d1d1" stroke-width="1.51"/><path d="M31,-16L74,56L103,32Z" fill="#e8e8e8" stroke="#e8e8e8" stroke-width="1.51"/><path d="M-96,-70L-30,-66L49,-109Z" fill="#b5b5b5" stroke="#b5b5b5" stroke-width="1.51"/><path d="M8,-28L31,-16L49,-109Z" fill="#c9c9c9" stroke="#c9c9c9" stroke-width="1.51"/><path d="M-9,49L53,123L74,56Z" fill="#dfdfdf" stroke="#dfdfdf" stroke-width="1.51"/><path d="M31,-16L-9,49L74,56Z" fill="#e2e2e2" stroke="#e2e2e2" stroke-width="1.51"/><path d="M53,123L-34,185L72,179Z" fill="#c3c3c3" stroke="#c3c3c3" stroke-width="1.51"/><path d="M-30,-66L8,-28L49,-109Z" fill="#c0c0c0" stroke="#c0c0c0" stroke-width="1.51"/><path d="M-9,49L-26,86L53,123Z" fill="#d5d5d5" stroke="#d5d5d5" stroke-width="1.51"/><path d="M-26,86L-34,185L53,123Z" fill="#c6c6c6" stroke="#c6c6c6" stroke-width="1.51"/><path d="M8,-28L-9,49L31,-16Z" fill="#d5d5d5" stroke="#d5d5d5" stroke-width="1.51"/><path d="M-60,173L-34,185L-26,86Z" fill="#bababa" stroke="#bababa" stroke-width="1.51"/><path d="M-84,-15L-9,49L8,-28Z" fill="#cecece" stroke="#cecece" stroke-width="1.51"/><path d="M-30,-66L-84,-15L8,-28Z" fill="#c1c1c1" stroke="#c1c1c1" stroke-width="1.51"/><path d="M-85,96L-60,173L-26,86Z" fill="#c0c0c0" stroke="#c0c0c0" stroke-width="1.51"/><path d="M-62,68L-26,86L-9,49Z" fill="#d4d4d4" stroke="#d4d4d4" stroke-width="1.51"/><path d="M-84,-15L-62,68L-9,49Z" fill="#d4d4d4" stroke="#d4d4d4" stroke-width="1.51"/><path d="M-96,-70L-84,-15L-30,-66Z" fill="#b6b6b6" stroke="#b6b6b6" stroke-width="1.51"/><path d="M-62,68L-85,96L-26,86Z" fill="#cacaca" stroke="#cacaca" stroke-width="1.51"/><path d="M-84,-15L-85,96L-62,68Z" fill="#d1d1d1" stroke="#d1d1d1" stroke-width="1.51"/><path d="M-96,-70L-85,96L-84,-15Z" fill="#c3c3c3" stroke="#c3c3c3" stroke-width="1.51"/></svg>