<?xml version="1.0" standalone="no"?>
<!DOCTYPE svg PUBLIC "-//W3C//DTD SVG 20010904//EN"
 "http://www.w3.org/TR/2001/REC-SVG-20010904/DTD/svg10.dtd">
<svg version="1.0" xmlns="http://www.w3.org/2000/svg"
 width="180.000000pt" height="180.000000pt" viewBox="0 0 180.000000 180.000000"
 preserveAspectRatio="xMidYMid meet">
<metadata>
Created by potrace 1.11, written by Peter Selinger 2001-2013
</metadata>
<g transform="translate(0.000000,180.000000) scale(0.100000,-0.100000)"
fill="#000000" stroke="none">
<path d="M0 900 l0 -900 900 0 900 0 0 900 0 900 -900 0 -900 0 0 -900z m940
185 c0 -23 -3 -24 -67 -27 l-68 -3 0 -218 0 -217 -27 0 -28 0 0 220 0 220 -70
0 c-68 0 -70 1 -70 25 l0 25 165 0 165 0 0 -25z m224 -136 c37 -32 56 -79 56
-136 l0 -33 -120 0 c-112 0 -120 -1 -120 -20 0 -80 87 -122 177 -85 45 19 43
19 43 -9 0 -48 -126 -73 -196 -40 -49 24 -76 73 -81 152 -4 56 -1 74 19 112
48 93 153 121 222 59z"/>
<path d="M1041 927 c-30 -15 -65 -72 -57 -93 5 -12 22 -14 88 -12 82 3 83 3
86 31 2 20 -5 35 -27 57 -32 33 -53 36 -90 17z"/>
</g>
</svg>
